<svg width="35" height="40" viewBox="0 0 35 40" fill="none" xmlns="http://www.w3.org/2000/svg">
<path fill-rule="evenodd" clip-rule="evenodd" d="M18.752 24.6162C19.3184 24.6164 19.7761 25.0792 19.7657 25.6455C19.7514 26.4058 19.7271 27.1506 19.6973 27.875C22.649 29.7192 24.6602 31.431 24.3741 31.9277C24.1191 32.3664 22.1389 31.7229 19.5557 30.4355C19.1587 36.0791 18.2843 40.001 17.2647 40.001C16.527 39.9995 15.8658 37.9447 15.4054 34.6709C12.8297 35.9528 10.8571 36.5918 10.6036 36.1533C10.3238 35.6652 12.2564 34.0062 15.1192 32.2012C14.9344 30.2496 14.8086 28.0263 14.7637 25.6455C14.7533 25.0793 15.2121 24.6164 15.7784 24.6162H18.752ZM25.4132 22.0244C28.4859 20.3904 30.9737 19.5049 31.2608 20.001C31.5144 20.4407 29.9668 21.8339 27.5596 23.4277C32.2482 26.5931 35.2075 29.3111 34.6983 30.1943C34.3288 30.833 32.2184 30.3781 29.1524 29.1396C28.9748 32.0114 28.5418 34.0388 28.0352 34.0391C27.4726 34.0373 27.0019 31.5344 26.8702 28.1523C25.0877 27.3366 23.099 26.3342 21.0147 25.1826C20.5193 24.9084 20.3477 24.2796 20.6309 23.7891L22.1182 21.2139C22.4016 20.7238 23.0306 20.5588 23.5157 20.8506C24.1671 21.2432 24.8007 21.6364 25.4132 22.0244ZM11.2384 20.4629C11.7236 20.1709 12.3536 20.3366 12.6368 20.8271L14.1231 23.4023C14.4061 23.8929 14.2348 24.5208 13.7393 24.7949C13.0737 25.1627 12.4167 25.5142 11.7745 25.8506C11.6532 29.3288 11.1758 31.9262 10.6026 31.9268C10.095 31.9266 9.66214 29.8895 9.48543 27.0078C4.39984 29.4855 0.567096 30.6892 0.0567179 29.8066C-0.311626 29.1673 1.13678 27.5673 3.74226 25.5312C1.34457 23.9418 -0.194782 22.5532 0.0576945 22.1143C0.340516 21.6279 2.74351 22.4719 5.73836 24.0488C7.33612 22.913 9.19884 21.6922 11.2384 20.4629ZM6.94344 5.96094C7.50579 5.96411 7.97577 8.46674 8.1075 11.8477C9.89008 12.6634 11.8786 13.6667 13.963 14.8184C14.4584 15.0925 14.6298 15.7204 14.3468 16.2109L12.8604 18.7871C12.577 19.2774 11.9471 19.4415 11.462 19.1494C10.8107 18.7569 10.178 18.3636 9.56551 17.9756C6.49268 19.6097 4.00413 20.496 3.71687 20C3.46321 19.5603 5.01178 18.1671 7.41902 16.5732C2.73037 13.4078 -0.228779 10.6899 0.280351 9.80664C0.649895 9.16794 2.76013 9.62285 5.82625 10.8613C6.00393 7.98939 6.43687 5.96094 6.94344 5.96094ZM24.3751 8.07422C24.8827 8.07439 25.3155 10.1115 25.4923 12.9932C30.5784 10.5152 34.4121 9.3113 34.922 10.1943C35.2898 10.8339 33.8407 12.4339 31.2354 14.4697C33.6337 16.0595 35.1733 17.448 34.92 17.8867C34.6367 18.3727 32.2339 17.5289 29.2393 15.9521C27.6416 17.088 25.7797 18.3089 23.7403 19.5381C23.255 19.8303 22.6242 19.6644 22.3409 19.1738L20.8546 16.5986C20.5715 16.1081 20.7437 15.4802 21.2393 15.2061C21.905 14.8383 22.5619 14.4868 23.2042 14.1504C23.3254 10.6729 23.8021 8.07601 24.3751 8.07422ZM17.713 0C18.4509 0.000687294 19.1118 2.0555 19.5723 5.33008C22.1484 4.04799 24.1208 3.40896 24.3741 3.84766C24.6539 4.33576 22.7216 5.99467 19.8585 7.7998C20.0433 9.75144 20.1691 11.9746 20.2139 14.3555C20.2244 14.9218 19.7658 15.3848 19.1993 15.3848H16.2257C15.6593 15.3846 15.2016 14.9217 15.212 14.3555C15.2263 13.5951 15.2506 12.8504 15.2804 12.126C12.3287 10.2818 10.3175 8.56995 10.6036 8.07324C10.8576 7.63372 12.838 8.27763 15.422 9.56543C15.819 3.92169 16.6933 0 17.713 0Z" fill="white"/>
</svg>
