<svg width="109" height="22" viewBox="36.5164 4.80017 108.532 22.3997" fill="none" xmlns="http://www.w3.org/2000/svg">
<path d="M36.5164 23.1861V6.30859H40.6936V19.695C40.6936 21.6231 39.1176 23.1861 37.1734 23.1861C36.7794 23.1861 36.5164 23.1861 36.5164 23.1861ZM38.605 17.1767V13.8012H47.2688C47.2688 15.6654 45.7449 17.1767 43.8651 17.1767H38.605ZM38.605 9.76082V6.30859H48.1455C48.1455 7.22407 47.7788 8.10219 47.1259 8.74967C46.473 9.39716 45.5876 9.76082 44.6645 9.76082H38.605Z" fill="white"/>
<path d="M49.3057 23.1862V9.68411C50.2633 9.68411 51.1812 10.061 51.8584 10.7326C52.535 11.4041 52.9156 12.3144 52.9156 13.2642V15.0542H53.1218C53.225 13.6222 53.4271 12.4929 53.7278 11.6659C54.0284 10.8389 54.407 10.2508 54.8624 9.90147C55.3177 9.55215 55.8293 9.37726 56.3966 9.37726C56.706 9.37726 57.0283 9.41971 57.3635 9.50512C57.6987 9.59053 58.0298 9.72657 58.3562 9.91426L58.15 14.5172C57.772 14.2958 57.4022 14.1295 57.0412 14.0186C56.6802 13.9076 56.3362 13.8524 56.0098 13.8524C55.4595 13.8524 54.9954 14.0058 54.6174 14.3126C54.2394 14.6195 53.9511 15.0711 53.7536 15.668C53.5561 16.2648 53.4571 16.989 53.4571 17.8416V23.1862H49.3057Z" fill="white"/>
<path d="M65.6534 23.5442C64.3471 23.5442 63.1867 23.2844 62.1724 22.7642C61.158 22.2441 60.3674 21.46 59.8001 20.4116C59.2329 19.3631 58.9492 18.0462 58.9492 16.4607C58.9492 14.8072 59.2457 13.456 59.8388 12.4076C60.4319 11.3591 61.24 10.5833 62.2626 10.0805C63.2853 9.57776 64.4415 9.32611 65.7307 9.32611C67.0715 9.32611 68.2447 9.58594 69.2504 10.1061C70.256 10.6262 71.0383 11.4102 71.5968 12.4587C72.1553 13.5071 72.4349 14.8328 72.4349 16.4351C72.4349 18.0886 72.1383 19.4399 71.5453 20.4883C70.9522 21.5368 70.1441 22.308 69.1214 22.8026C68.0988 23.2972 66.9426 23.5442 65.6534 23.5442ZM65.7565 20.5011C66.2893 20.5011 66.7364 20.3518 67.0973 20.0536C67.4583 19.7554 67.7332 19.3161 67.9225 18.7366C68.1117 18.1572 68.2061 17.4667 68.2061 16.6653C68.2061 15.779 68.1029 15.0328 67.8966 14.4277C67.6904 13.8227 67.3938 13.3578 67.0071 13.0341C66.6203 12.7103 66.152 12.5482 65.6018 12.5482C65.0861 12.5482 64.6477 12.6975 64.2867 12.9957C63.9257 13.2939 63.6509 13.7332 63.4616 14.3127C63.2724 14.8921 63.178 15.5913 63.178 16.4096C63.178 17.7051 63.4059 18.711 63.8613 19.4271C64.3167 20.1431 64.9484 20.5011 65.7565 20.5011Z" fill="white"/>
<path d="M79.8867 23.5442C78.9754 23.5442 78.1292 23.4547 77.3469 23.2757C76.5645 23.0967 75.8858 22.8113 75.3098 22.419C74.7338 22.0267 74.2955 21.5025 73.9948 20.8463C73.6941 20.1901 73.5694 19.3928 73.6209 18.4553C73.6209 18.4553 74.6456 18.3689 75.6069 18.2876C76.4196 18.2191 77.1927 18.6502 77.5557 19.3749C77.5805 19.4337 77.6109 19.489 77.6434 19.5422C77.8667 19.9089 78.1761 20.1773 78.5717 20.3476C78.9672 20.518 79.4483 20.6034 80.0156 20.6034C80.5483 20.6034 81.0083 20.5139 81.3951 20.3349C81.7819 20.1559 81.9753 19.8531 81.9753 19.4271C81.9753 19.2056 81.9067 19.022 81.769 18.8773C81.6313 18.7325 81.3781 18.596 81.0083 18.4681C80.6386 18.3403 80.1017 18.1909 79.3968 18.0206C78.5201 17.7991 77.7295 17.5772 77.0246 17.3557C76.3196 17.1343 75.7183 16.8699 75.2196 16.563C74.7209 16.2561 74.3429 15.8766 74.085 15.425C73.8272 14.9734 73.6982 14.415 73.6982 13.7501C73.6982 12.8126 73.952 12.0153 74.4589 11.3591C74.9659 10.7029 75.6667 10.1997 76.5604 9.85035C77.4541 9.50104 78.4855 9.32611 79.6546 9.32611C80.703 9.32611 81.6829 9.48824 82.5941 9.81199C83.5054 10.1357 84.2227 10.6645 84.7472 11.3974V11.398C85.1582 11.9723 85.2288 12.72 84.9328 13.3599C84.6368 14.0002 84.019 14.4349 83.3125 14.5009C82.508 14.576 81.769 14.6451 81.769 14.6451C81.8206 14.1505 81.752 13.7286 81.5627 13.3793C81.3734 13.03 81.0986 12.7655 80.7376 12.5865C80.3766 12.4075 79.9383 12.3181 79.4226 12.3181C78.8383 12.3181 78.3871 12.4244 78.0689 12.6377C77.7507 12.851 77.5918 13.1195 77.5918 13.4432C77.5918 13.6989 77.6908 13.9163 77.8883 14.0953C78.0858 14.2743 78.3953 14.4277 78.8166 14.5556C79.2379 14.6835 79.7836 14.8241 80.454 14.9775C81.0383 15.0967 81.6488 15.2501 82.2847 15.4378C82.9206 15.6255 83.5137 15.8766 84.0639 16.1922C84.6142 16.5078 85.0607 16.921 85.4047 17.4325C85.7487 17.9439 85.9204 18.5919 85.9204 19.3759C85.9204 20.2111 85.6884 20.9445 85.2242 21.5751C84.7601 22.2057 84.0809 22.6916 83.1872 23.0327C82.2935 23.3738 81.1929 23.5442 79.8867 23.5442Z" fill="white"/>
<path d="M92.702 23.4929C91.1033 23.4929 89.913 23.0878 89.1307 22.2782C88.3484 21.4686 87.9575 20.211 87.9575 18.5063V12.9061H86.4619V10.3744C86.4619 10.332 86.4965 10.2977 86.5393 10.2977C87.6052 10.1612 88.3613 9.80776 88.8084 9.23648C89.2555 8.6652 89.5304 7.80035 89.6335 6.64091V6.58978C90.2828 6.58978 90.9063 6.8455 91.3657 7.30119C91.8252 7.75689 92.0831 8.37469 92.0831 9.01859V9.68399H95.2031V13.0084H92.0831V18.1228C92.0831 18.7708 92.2419 19.2311 92.5601 19.5037C92.8783 19.7763 93.2692 19.9128 93.7334 19.9128C93.9742 19.9128 94.2233 19.8785 94.4811 19.8105C94.739 19.7425 94.9798 19.6484 95.2031 19.5292V23.1349C94.6704 23.2883 94.1975 23.3865 93.7849 23.429C93.3724 23.4714 93.0114 23.4929 92.702 23.4929Z" fill="white"/>
<path d="M96.7502 23.186V5.28558C97.858 5.28558 98.9209 5.72182 99.7042 6.49869C100.488 7.27557 100.927 8.32915 100.927 9.42824C100.927 14.7155 100.927 23.186 100.927 23.186H96.7502Z" fill="white"/>
<path d="M107.657 27.1752C107.142 27.1752 106.574 27.1328 105.955 27.0474C105.337 26.962 104.718 26.8259 104.099 26.6382C103.48 26.4505 102.904 26.2122 102.371 25.9222L103.325 21.7539C103.944 22.3334 104.636 22.7426 105.401 22.9814C106.166 23.2203 106.849 23.3394 107.451 23.3394C108.293 23.3394 109.002 23.1732 109.578 22.8408C110.154 22.5083 110.588 22.0225 110.88 21.3832C111.173 20.7439 111.319 19.9639 111.319 19.0433V16.6907H111.087C111.052 17.8839 110.859 18.8602 110.506 19.6187C110.154 20.3772 109.677 20.9357 109.075 21.2937C108.474 21.6517 107.777 21.8307 106.987 21.8307C106.007 21.8307 105.195 21.5836 104.55 21.0891C103.906 20.5945 103.42 19.8529 103.093 18.8643C102.767 17.8757 102.603 16.6396 102.603 15.1564V9.68396H106.755V14.0823C106.755 15.5312 106.909 16.5884 107.219 17.2533C107.528 17.9181 108.018 18.2506 108.689 18.2506C109.033 18.2506 109.337 18.1611 109.604 17.9821C109.871 17.8031 110.09 17.5305 110.262 17.1638C110.433 16.7971 110.562 16.3368 110.648 15.7829C110.734 15.229 110.777 14.5851 110.777 13.8522V9.68396H114.929V19.1967C114.929 20.1173 114.834 20.9827 114.645 21.7923C114.456 22.6019 114.172 23.3353 113.794 23.9915C113.416 24.6477 112.939 25.2149 112.363 25.692C111.787 26.1692 111.108 26.5359 110.326 26.7917C109.544 27.0474 108.654 27.1752 107.657 27.1752Z" fill="white"/>
<path d="M122.226 23.4929C120.627 23.4929 119.437 23.0878 118.655 22.2782C117.873 21.4686 117.482 20.211 117.482 18.5063V12.9061H115.986V10.2977H116.063C117.129 10.1612 117.885 9.80776 118.333 9.23648C118.78 8.6652 119.055 7.80035 119.158 6.64091V6.58978H119.261C119.883 6.58978 120.48 6.83477 120.92 7.27154C121.36 7.7078 121.607 8.30003 121.607 8.91683V9.68399H124.727V13.0084H121.607V18.1228C121.607 18.7708 121.766 19.2311 122.084 19.5037C122.402 19.7763 122.793 19.9128 123.258 19.9128C123.498 19.9128 123.747 19.8785 124.005 19.8105C124.263 19.7425 124.504 19.6484 124.727 19.5292V23.1349C124.195 23.2883 123.722 23.3865 123.309 23.429C122.897 23.4714 122.536 23.4929 122.226 23.4929Z" fill="white"/>
<path d="M126.274 23.186V9.68393H130.451V23.186H126.274ZM128.337 8.71218C127.546 8.71218 126.941 8.54598 126.519 8.21354C126.098 7.88111 125.887 7.39932 125.887 6.76872C125.887 6.12072 126.098 5.63076 126.519 5.29832C126.941 4.96589 127.546 4.79968 128.337 4.79968C129.145 4.79968 129.759 4.96999 130.181 5.31112C130.602 5.65225 130.812 6.13811 130.812 6.76872C130.812 7.38245 130.602 7.85961 130.181 8.20074C129.759 8.54187 129.145 8.71218 128.337 8.71218Z" fill="white"/>
<path d="M138.832 23.5442C137.611 23.5442 136.563 23.3611 135.686 22.9944C134.809 22.6277 134.096 22.1208 133.546 21.4728C132.996 20.8248 132.592 20.0833 132.334 19.2481C132.076 18.4129 131.947 17.526 131.947 16.5886C131.947 15.6337 132.076 14.7259 132.334 13.8651C132.592 13.0044 132.992 12.2285 133.533 11.5381C134.075 10.8477 134.779 10.3066 135.647 9.91428C136.515 9.52201 137.56 9.32611 138.78 9.32611C140.224 9.32611 141.389 9.59462 142.274 10.1316C143.16 10.6686 143.779 11.3632 144.131 12.2158C144.483 13.0683 144.582 13.9889 144.427 14.9775L140.817 15.2588C140.852 14.6451 140.787 14.1377 140.624 13.7373C140.46 13.3368 140.216 13.0381 139.889 12.8423C139.563 12.6464 139.167 12.5482 138.703 12.5482C138.29 12.5482 137.925 12.6249 137.607 12.7783C137.289 12.9318 137.023 13.166 136.808 13.4816C136.593 13.7971 136.43 14.1935 136.318 14.6707C136.206 15.1478 136.15 15.7191 136.15 16.384C136.15 17.2366 136.249 17.9695 136.447 18.5832C136.644 19.1969 136.945 19.6659 137.349 19.9897C137.753 20.3134 138.265 20.4755 138.883 20.4755C139.519 20.4755 140.001 20.3221 140.327 20.0152C140.654 19.7084 140.869 19.3207 140.972 18.8517C141.075 18.3827 141.092 17.9183 141.024 17.458L144.866 17.637C144.969 18.3873 144.934 19.1161 144.762 19.8234C144.591 20.5308 144.26 21.166 143.77 21.7285C143.28 22.2911 142.626 22.7346 141.81 23.0583C140.994 23.3821 140.001 23.5442 138.832 23.5442Z" fill="white"/>
</svg>
